<?xml version="1.0" encoding="utf-8"?>
<!-- Generator: Adobe Illustrator 23.1.0, SVG Export Plug-In . SVG Version: 6.00 Build 0)  -->
<svg version="1.1" id="Capa_1" xmlns="http://www.w3.org/2000/svg" xmlns:xlink="http://www.w3.org/1999/xlink" x="0px" y="0px"
	 viewBox="0 0 20 20" style="enable-background:new 0 0 20 20;" xml:space="preserve">
<style type="text/css">
	.st0{fill:#83878B;}
</style>
<g>
	<path class="st0" d="M10,19.6c-5.3,0-9.6-4.3-9.6-9.6c0-5.3,4.3-9.6,9.6-9.6c5.3,0,9.6,4.3,9.6,9.6C19.6,15.3,15.3,19.6,10,19.6z
		 M10,2.1c-4.4,0-7.9,3.5-7.9,7.9c0,4.4,3.5,7.9,7.9,7.9s7.9-3.5,7.9-7.9C17.9,5.6,14.4,2.1,10,2.1z"/>
	<g id="XMLID_23_">
		<path id="XMLID_31_" class="st0" d="M8.6,7.6c0,0.9-0.5,1.7-1.2,1.7c-0.7,0-1.2-0.7-1.2-1.7C6.2,6.7,6.7,6,7.4,6
			C8.1,6,8.6,6.7,8.6,7.6z"/>
		<path id="XMLID_24_" class="st0" d="M13.8,7.6c0,0.9-0.5,1.7-1.2,1.7c-0.7,0-1.2-0.7-1.2-1.7c0-0.9,0.5-1.7,1.2-1.7
			C13.3,6,13.8,6.7,13.8,7.6z"/>
	</g>
	<path id="XMLID_10_" class="st0" d="M4.9,11.6c0.7,2.1,2.7,3.7,5.1,3.7c2.4,0,4.4-1.6,5.1-3.7H4.9z"/>
</g>
</svg>
