<svg height="512" viewBox="0 0 512 512" width="512" xmlns="http://www.w3.org/2000/svg"><g id="Face_Vomiting" data-name="Face Vomiting"><g id="Flat"><path d="m256 464c-68.228 0-132.411-24.033-180.725-67.671-48.542-43.845-75.275-102.204-75.275-164.329s26.733-120.484 75.275-164.329c48.314-43.638 112.497-67.671 180.725-67.671s132.411 24.033 180.725 67.671c48.542 43.845 75.275 102.204 75.275 164.329s-26.733 120.484-75.275 164.329c-48.314 43.638-112.497 67.671-180.725 67.671z" fill="#ffcc80"/><path d="m436.725 67.671q-8.923-8.06-18.549-15.216a212.763 212.763 0 0 1 13.824 75.545c0 62.125-26.733 120.484-75.275 164.329-48.314 43.638-112.497 67.671-180.725 67.671-59.827 0-116.541-18.483-162.176-52.455 12.523 33.074 33.315 63.37 61.451 88.784 48.314 43.638 112.497 67.671 180.725 67.671s132.411-24.033 180.725-67.671c48.542-43.845 75.275-102.204 75.275-164.329s-26.733-120.484-75.275-164.329z" fill="#ffb74d"/><path d="m312 384h-112a64.072 64.072 0 0 1 -64-64 80.091 80.091 0 0 1 80-80h80a80.091 80.091 0 0 1 80 80 64.072 64.072 0 0 1 -64 64z" fill="#ef5350"/><path d="m160 336a80.091 80.091 0 0 1 80-80h80a79.538 79.538 0 0 1 31.518 6.482 79.706 79.706 0 0 0 -55.518-22.482h-80a80.091 80.091 0 0 0 -80 80 64.1 64.1 0 0 0 41.5 59.906 63.756 63.756 0 0 1 -17.5-43.906z" fill="#e53935"/><path d="m407.959 208a7.974 7.974 0 0 1 -5.656-2.343c-26.218-26.217-80.303-8.657-86.383-6.573a9 9 0 0 1 -11.906-9.034c1.622-28.826 37.854-46.05 71.945-46.05a8 8 0 1 1 0 16c-22.7 0-43.161 8.455-51.734 20.032 22.425-5.5 64.048-11.032 89.391 14.311a8 8 0 0 1 -5.657 13.657z" fill="#424242"/><path d="m104.041 208a8 8 0 0 1 -5.657-13.657c25.341-25.341 66.964-19.812 89.392-14.311-8.576-11.578-29.031-20.032-51.735-20.032a8 8 0 0 1 0-16c34.091 0 70.323 17.224 71.945 46.048a9 9 0 0 1 -11.9 9.036c-6.086-2.084-60.171-19.645-86.386 6.573a7.974 7.974 0 0 1 -5.659 2.343z" fill="#424242"/><path d="m392 128c-37.073 0-71.643-2.8-87.264-36.647a8 8 0 0 1 14.528-6.706c10.672 23.123 32.867 27.353 72.736 27.353a8 8 0 0 1 0 16z" fill="#616161"/><path d="m120 128a8 8 0 0 1 0-16c39.869 0 62.064-4.23 72.736-27.353a8 8 0 1 1 14.528 6.706c-15.621 33.847-50.191 36.647-87.264 36.647z" fill="#616161"/><path d="m408 512h-304a40 40 0 0 1 0-80 64.072 64.072 0 0 0 64-64v-104h176v104a64.072 64.072 0 0 0 64 64 40 40 0 0 1 0 80z" fill="#4db6ac"/><path d="m316 320a213.944 213.944 0 0 1 28 1.843v-57.843h-176v104a63.965 63.965 0 0 1 -1.488 13.685 211.321 211.321 0 0 1 149.488-61.685z" fill="#26a69a"/><path d="m408 432a63.751 63.751 0 0 1 -19.663-3.1 267.234 267.234 0 0 1 -194 83.1h213.663a40 40 0 0 0 0-80z" fill="#26a69a"/><g fill="#00897b"><path d="m296 448a8 8 0 1 1 8-8 8.011 8.011 0 0 1 -8 8zm112-16h-80a8 8 0 0 0 0 16h111.98a39.953 39.953 0 0 0 -31.98-16z"/><path d="m208 384a8.011 8.011 0 0 1 -8-8v-48a8 8 0 0 1 16 0v48a8.011 8.011 0 0 1 -8 8z"/><path d="m240 432a8.011 8.011 0 0 1 -8-8v-48a8 8 0 0 1 16 0v48a8.011 8.011 0 0 1 -8 8z"/><path d="m272 352a8.011 8.011 0 0 1 -8-8v-16a8 8 0 0 1 16 0v16a8.011 8.011 0 0 1 -8 8z"/><path d="m304 408a8.011 8.011 0 0 1 -8-8v-48a8 8 0 0 1 16 0v48a8.011 8.011 0 0 1 -8 8z"/></g><circle cx="120" cy="472" fill="#b2dfdb" r="24"/><circle cx="88" cy="248" fill="#ffe4c0" r="24"/><circle cx="424" cy="248" fill="#ffe4c0" r="24"/><path d="m344 256.385v-1.091a78.786 78.786 0 0 0 -48-16.294h-80a78.786 78.786 0 0 0 -48 16.294v1.091c0 26.255 21.031 47.615 46.882 47.615h82.236c25.851 0 46.882-21.36 46.882-47.615z" fill="#f5f5f5"/><path d="m228.273 304a155.717 155.717 0 0 1 104.1-55.223 79.467 79.467 0 0 0 -36.373-8.777h-80a79.576 79.576 0 0 0 -48 16.044v1.073a46.935 46.935 0 0 0 46.882 46.883z" fill="#e5e5e5"/></g></g></svg>