<svg height="512" viewBox="0 0 512 512" width="512" xmlns="http://www.w3.org/2000/svg"><g id="Face_With_Rolling_Eyes" data-name="Face With Rolling Eyes"><g id="Flat"><path d="m256 512c-34.354 0-68.082-8.547-100.246-25.4-30.06-15.753-57.385-37.979-81.216-66.058-47.37-55.816-74.538-127.452-74.538-196.542 0-67.68 26.128-124.924 75.559-165.543 45.873-37.697 109.955-58.457 180.441-58.457s134.568 20.76 180.441 58.457c49.431 40.619 75.559 97.863 75.559 165.543 0 69.09-27.168 140.726-74.538 196.539-23.831 28.079-51.156 50.305-81.216 66.058-32.164 16.856-65.892 25.403-100.246 25.403z" fill="#ffcc80"/><path d="m447.76 68.459c.14 3.831.24 7.675.24 11.541 0 167.9-136.1 304-304 304a303.291 303.291 0 0 1 -107.608-19.618 319.525 319.525 0 0 0 38.146 56.157c23.831 28.079 51.156 50.305 81.216 66.058 32.164 16.856 65.892 25.403 100.246 25.403s68.082-8.547 100.246-25.4c30.06-15.753 57.385-37.979 81.216-66.058 47.37-55.816 74.538-127.452 74.538-196.542 0-62.3-22.159-115.753-64.24-155.541z" fill="#ffb74d"/><circle cx="144" cy="192" fill="#fff" r="80"/><circle cx="384" cy="192" fill="#fff" r="80"/><path d="m280 320h-48a8 8 0 0 1 0-16h48a8 8 0 0 1 0 16z" fill="#ef5350"/><circle cx="384" cy="136" fill="#616161" r="24"/><circle cx="144" cy="136" fill="#616161" r="24"/><circle cx="376" cy="128" fill="#fff" r="8"/><circle cx="136" cy="128" fill="#fff" r="8"/><path d="m390.966 113.034a24 24 0 0 1 -29.932 29.932 24 24 0 1 0 29.932-29.932z" fill="#424242"/><path d="m150.966 113.034a24 24 0 0 1 -29.932 29.932 24 24 0 1 0 29.932-29.932z" fill="#424242"/><circle cx="88" cy="312" fill="#ffe4c0" r="24"/><circle cx="424" cy="312" fill="#ffe4c0" r="24"/><g fill="#f5f5f5"><path d="m187.207 124.724a79.953 79.953 0 0 1 -118.414 94.552 79.992 79.992 0 1 0 118.414-94.552z"/><path d="m427.207 124.724a79.953 79.953 0 0 1 -118.414 94.552 79.992 79.992 0 1 0 118.414-94.552z"/></g></g></g></svg>