<svg height="512" viewBox="0 0 512 512" width="512" xmlns="http://www.w3.org/2000/svg"><g id="Face_With_Steam_From_Nose" data-name="Face With Steam From Nose"><g id="Flat"><path d="m256 512c-34.354 0-68.082-8.547-100.246-25.4-30.06-15.753-57.385-37.979-81.216-66.058-47.37-55.816-74.538-127.452-74.538-196.542 0-67.68 26.128-124.924 75.559-165.543 45.873-37.697 109.955-58.457 180.441-58.457s134.568 20.76 180.441 58.457c49.431 40.619 75.559 97.863 75.559 165.543 0 69.09-27.168 140.726-74.538 196.539-23.831 28.079-51.156 50.305-81.216 66.058-32.164 16.856-65.892 25.403-100.246 25.403z" fill="#ffcc80"/><path d="m447.76 68.459c.14 3.831.24 7.675.24 11.541 0 167.9-136.1 304-304 304a303.291 303.291 0 0 1 -107.608-19.618 319.525 319.525 0 0 0 38.146 56.157c23.831 28.079 51.156 50.305 81.216 66.058 32.164 16.856 65.892 25.403 100.246 25.403s68.082-8.547 100.246-25.4c30.06-15.753 57.385-37.979 81.216-66.058 47.37-55.816 74.538-127.452 74.538-196.542 0-62.3-22.159-115.753-64.24-155.541z" fill="#ffb74d"/><circle cx="56" cy="248" fill="#ffe4c0" r="24"/><circle cx="456" cy="248" fill="#ffe4c0" r="24"/><path d="m376 216c-23.863 0-38.371-6.493-46.36-11.963a8.031 8.031 0 0 1 -.281-13.056 8.015 8.015 0 0 1 9.3-.233c5.606 3.788 17.179 9.252 37.341 9.252s31.735-5.464 37.337-9.252a8.015 8.015 0 0 1 9.3.233 8.031 8.031 0 0 1 -.281 13.056c-7.985 5.47-22.493 11.963-46.356 11.963z" fill="#424242"/><path d="m296 328a7.979 7.979 0 0 1 -5.963-2.663c-.137-.159-15.884-17.337-34.037-17.337-18.013 0-33.885 17.163-34.04 17.337a8 8 0 0 1 -11.92-10.674c.828-.925 20.585-22.663 45.96-22.663s45.132 21.738 45.96 22.663a8 8 0 0 1 -5.96 13.337z" fill="#ef5350"/><path d="m305.4 163.351a39.941 39.941 0 0 1 -35.732-22.12l-4.826-9.654a8 8 0 1 1 14.31-7.154l4.826 9.653a23.97 23.97 0 0 0 26.673 12.695l119.614-26.581a8 8 0 1 1 3.47 15.62l-119.61 26.58a40.21 40.21 0 0 1 -8.725.961z" fill="#616161"/><path d="m206.6 163.351a40.2 40.2 0 0 1 -8.722-.961l-119.613-26.58a8 8 0 0 1 3.47-15.62l119.611 26.581a23.975 23.975 0 0 0 26.673-12.7l4.826-9.652a8 8 0 0 1 14.31 7.154l-4.826 9.653a39.944 39.944 0 0 1 -35.729 22.125z" fill="#616161"/><path d="m404.1 468.4a55.27 55.27 0 0 1 -55.314-55.907q-1.385-1.186-2.656-2.459a48 48 0 0 1 0-67.881l.2-.2-69.544-90.407a17.111 17.111 0 0 1 24-24l90.928 69.944a48.26 48.26 0 0 1 61.9 5.059q1.271 1.267 2.457 2.654.323 0 .644 0a55.32 55.32 0 0 1 40.807 92.636 55.3 55.3 0 0 1 -51.482 51.337q-1.359 1.581-2.82 3.043a55.151 55.151 0 0 1 -39.12 16.181z" fill="#f5f5f5"/><path d="m107.9 468.4a55.151 55.151 0 0 1 -39.117-16.177q-1.457-1.459-2.82-3.043a55.3 55.3 0 0 1 -51.482-51.337 55.318 55.318 0 0 1 40.807-92.643h.644q1.185-1.383 2.457-2.655a48.266 48.266 0 0 1 61.9-5.058l90.928-69.944a17.112 17.112 0 0 1 24 24l-69.545 90.408.2.2a48 48 0 0 1 0 67.883q-1.267 1.269-2.654 2.457a55.27 55.27 0 0 1 -55.318 55.909z" fill="#f5f5f5"/><path d="m495.8 321.4a55.7 55.7 0 0 0 -5.492-4.8 120.121 120.121 0 0 1 -155.234 76.229 47.83 47.83 0 0 0 11.058 17.194q1.269 1.27 2.656 2.459a55.336 55.336 0 0 0 94.431 39.73q1.457-1.459 2.82-3.043a55.3 55.3 0 0 0 51.482-51.337 55.325 55.325 0 0 0 -1.721-76.432z" fill="#e5e5e5"/><path d="m72 400a135.372 135.372 0 0 1 -67.681-18.011 55.071 55.071 0 0 0 10.162 15.849 55.3 55.3 0 0 0 51.482 51.337q1.359 1.581 2.82 3.043a55.317 55.317 0 0 0 94.431-39.73q1.385-1.186 2.654-2.457a48.068 48.068 0 0 0 8.47-56.468 135.67 135.67 0 0 1 -102.338 46.437z" fill="#e5e5e5"/><path d="m139.375 216c-23.862 0-38.371-6.493-46.359-11.963a8.032 8.032 0 0 1 -.282-13.056 8.017 8.017 0 0 1 9.305-.233c5.6 3.788 17.175 9.252 37.336 9.252s31.736-5.464 37.337-9.252a8.017 8.017 0 0 1 9.305.233 8.032 8.032 0 0 1 -.282 13.056c-7.988 5.47-22.497 11.963-46.36 11.963z" fill="#424242"/></g></g></svg>