<?xml version="1.0"?>
<svg xmlns="http://www.w3.org/2000/svg" viewBox="0 0 512 512" width="512" height="512"><g id="Squinting_Face_With_Tongue" data-name="Squinting Face With Tongue"><g id="Flat"><path d="M256,512c-34.27,0-67.946-8.1-100.092-24.067-30.031-14.919-57.359-35.96-81.223-62.539C27.222,372.532,0,304.958,0,240,0,175.792,26.7,115.457,75.172,70.109,123.5,24.9,187.72,0,256,0S388.5,24.9,436.828,70.109C485.3,115.457,512,175.792,512,240c0,64.958-27.222,132.532-74.685,185.394-23.864,26.579-51.192,47.62-81.223,62.539C323.946,503.9,290.27,512,256,512Z" style="fill:#ffcc80"/><path d="M437.959,71.193A335.627,335.627,0,0,1,440,108c0,183.359-148.641,332-332,332-6.683,0-13.314-.221-19.9-.61a266.906,266.906,0,0,0,67.807,48.543C188.054,503.9,221.729,512,256,512s67.946-8.1,100.092-24.067c30.031-14.919,57.358-35.96,81.223-62.539C484.778,372.532,512,304.958,512,240,512,176.3,485.711,116.417,437.959,71.193Z" style="fill:#ffb74d"/><path d="M256,416A104.118,104.118,0,0,1,152,312V232a24.028,24.028,0,0,1,24-24H336a24.028,24.028,0,0,1,24,24v80A104.118,104.118,0,0,1,256,416Z" style="fill:#e57373"/><path d="M352,232c2.681,0,5.346.07,8,.178V232a24.028,24.028,0,0,0-24-24H176a24.028,24.028,0,0,0-24,24v80a103.385,103.385,0,0,0,16.336,55.9A192.077,192.077,0,0,1,352,232Z" style="fill:#d86a6a"/><path d="M256,480a80.091,80.091,0,0,1-80-80V316a44.049,44.049,0,0,1,44-44c18.368,0,29.612,6.231,36,11.813C262.388,278.231,273.632,272,292,272a44.049,44.049,0,0,1,44,44v84A80.091,80.091,0,0,1,256,480Z" style="fill:#ef5350"/><path d="M256,283.81a43.071,43.071,0,0,0-8-5.49V360a8,8,0,0,0,16,0V278.32A43.071,43.071,0,0,0,256,283.81ZM256,384a8,8,0,1,0,8,8A8.011,8.011,0,0,0,256,384Z" style="fill:#e53935"/><path d="M407.959,192a7.974,7.974,0,0,1-5.656-2.343C376.086,163.442,322,181,315.92,183.083a9,9,0,0,1-11.906-9.034C305.636,145.224,341.868,128,375.959,128a8,8,0,0,1,0,16c-22.7,0-43.163,8.454-51.735,20.033,22.43-5.5,64.052-11.032,89.392,14.31A8,8,0,0,1,407.959,192Z" style="fill:#424242"/><path d="M104.041,192a8,8,0,0,1-5.657-13.657c25.341-25.342,66.966-19.81,89.393-14.31C179.205,152.455,158.745,144,136.041,144a8,8,0,0,1,0-16c34.091,0,70.323,17.224,71.945,46.047a9,9,0,0,1-11.909,9.035C190,181,135.913,163.441,109.7,189.657A7.974,7.974,0,0,1,104.041,192Z" style="fill:#424242"/><path d="M212,424a124.075,124.075,0,0,1-33.612-4.614A80,80,0,0,0,336,400V316a44.308,44.308,0,0,0-.409-5.92A124.008,124.008,0,0,1,212,424Z" style="fill:#e53935"/><circle cx="208" cy="344" r="16" style="fill:#ff8f8f"/><circle cx="220" cy="380" r="12" style="fill:#ff8f8f"/><circle cx="64" cy="240" r="24" style="fill:#ffe4c0"/><circle cx="448" cy="240" r="24" style="fill:#ffe4c0"/></g></g></svg>
