<?xml version="1.0"?>
<svg xmlns="http://www.w3.org/2000/svg" viewBox="0 0 512 512" width="512" height="512"><g id="Tired_Face" data-name="Tired Face"><g id="Flat"><path d="M256,512c-73,0-135.277-17.354-180.09-50.184C26.249,425.434,0,370.862,0,304,0,235.072,27.8,158.691,74.357,99.682c23.958-30.365,51.252-54.464,81.124-71.629C187.875,9.438,221.694,0,256,0s68.125,9.438,100.519,28.053c29.872,17.165,57.166,41.264,81.124,71.629C484.2,158.691,512,235.072,512,304c0,66.862-26.249,121.434-75.909,157.816C391.277,494.646,329,512,256,512Z" style="fill:#ffcc80"/><path d="M447.917,113.439c.046,2.182.083,4.367.083,6.561C448,287.9,311.9,424,144,424A302.922,302.922,0,0,1,21.252,398.178,179.921,179.921,0,0,0,75.91,461.816C120.723,494.646,183,512,256,512s135.277-17.354,180.09-50.184C485.751,425.434,512,370.862,512,304,512,240.312,488.254,170.271,447.917,113.439Z" style="fill:#ffb74d"/><circle cx="56" cy="248" r="24" style="fill:#ffe4c0"/><circle cx="456" cy="248" r="24" style="fill:#ffe4c0"/><path d="M78.427,400.817a34.081,34.081,0,0,1-30.357-48.9c11.329-23.583,32.659-57.459,69.937-84.922C156.732,238.465,203.056,224,255.693,224c46.217,0,89.269,14.016,127.961,41.657,29.635,21.171,56.262,50.589,74.977,82.836a34.006,34.006,0,0,1-38.613,49.885A608.633,608.633,0,0,0,255.693,376c-72.425,0-131.083,12.729-167.537,23.407A34.6,34.6,0,0,1,78.427,400.817Z" style="fill:#e27484"/><path d="M392,128c-37.072,0-71.643-2.8-87.264-36.647a8,8,0,0,1,14.528-6.706C329.936,107.77,352.132,112,392,112a8,8,0,0,1,0,16Z" style="fill:#616161"/><path d="M120,128a8,8,0,0,1,0-16c39.869,0,62.064-4.23,72.736-27.353a8,8,0,1,1,14.528,6.706C191.643,125.2,157.073,128,120,128Z" style="fill:#616161"/><path d="M407.96,208a7.974,7.974,0,0,1-5.657-2.343C376.088,179.44,322,197,315.92,199.084a9,9,0,0,1-11.905-9.034C305.637,161.224,341.869,144,375.96,144a8,8,0,1,1,0,16c-22.7,0-43.162,8.455-51.735,20.032,22.428-5.5,64.05-11.032,89.392,14.311A8,8,0,0,1,407.96,208Z" style="fill:#424242"/><path d="M104.041,208a8,8,0,0,1-5.657-13.657c25.341-25.341,66.964-19.812,89.392-14.311C179.2,168.454,158.745,160,136.041,160a8,8,0,0,1,0-16c34.091,0,70.323,17.224,71.945,46.048a9,9,0,0,1-11.9,9.036C190,197,135.915,179.439,109.7,205.657A7.974,7.974,0,0,1,104.041,208Z" style="fill:#424242"/><path d="M105.345,394.693A248.3,248.3,0,0,1,376.538,260.762C339.707,236.363,299.1,224,255.693,224c-52.637,0-98.961,14.465-137.686,42.994C80.729,294.457,59.4,328.333,48.07,351.916a34.081,34.081,0,0,0,30.357,48.9,34.6,34.6,0,0,0,9.729-1.41C93.425,397.864,99.173,396.277,105.345,394.693Z" style="fill:#d8667c"/></g></g></svg>
