<svg height="512" viewBox="0 0 512 512" width="512" xmlns="http://www.w3.org/2000/svg"><g id="Unamused_Face" data-name="Unamused Face"><g id="Flat"><path d="m256 512a256 256 0 0 1 -181.02-437.02 256 256 0 0 1 362.04 362.04 254.331 254.331 0 0 1 -181.02 74.98z" fill="#ffcc80"/><circle cx="360" cy="224" fill="#616161" r="24"/><circle cx="352" cy="216" fill="#fff" r="8"/><circle cx="200" cy="224" fill="#616161" r="24"/><circle cx="192" cy="216" fill="#fff" r="8"/><path d="m183.994 320a8 8 0 0 1 -1.928-15.765c2.663-.661 65.651-16.235 105.934-16.235 46.311 0 47.963 21.438 48 23.883a8 8 0 0 1 -7.883 8.117h-.117a8 8 0 0 1 -7.96-7.212c-.329-.809-4.331-8.788-32.04-8.788-38.312 0-101.434 15.605-102.066 15.763a8.011 8.011 0 0 1 -1.94.237z" fill="#ef5350"/><g fill="#424242"><path d="m375.915 206.057c.051.642.085 1.288.085 1.943a23.983 23.983 0 0 1 -39.915 17.943 24 24 0 1 0 39.83-19.886z"/><path d="m215.915 206.057c.051.642.085 1.288.085 1.943a23.983 23.983 0 0 1 -39.915 17.943 24 24 0 1 0 39.83-19.886z"/><path d="m128.014 224.914a8 8 0 0 1 -5.014-14.235c1.8-1.438 44.594-34.9 96.576-8.908a8 8 0 0 1 -7.156 14.31c-42.65-21.323-77.96 5.937-79.443 7.107a7.982 7.982 0 0 1 -4.963 1.726z"/><path d="m288.014 224.914a8 8 0 0 1 -5.014-14.235c1.8-1.438 44.594-34.9 96.576-8.908a8 8 0 1 1 -7.156 14.31c-42.65-21.323-77.96 5.937-79.443 7.107a7.982 7.982 0 0 1 -4.963 1.726z"/></g><path d="m436.828 74.783a258.146 258.146 0 0 0 -42.542-34.3 256.558 256.558 0 0 1 -53.458 284.739 256.2 256.2 0 0 1 -319.115 34.3 256.068 256.068 0 1 0 415.115-284.739z" fill="#ffb74d"/><circle cx="88" cy="280" fill="#ffe4c0" r="24"/><circle cx="424" cy="280" fill="#ffe4c0" r="24"/></g></g></svg>