<svg height="512" viewBox="0 0 512 512" width="512" xmlns="http://www.w3.org/2000/svg"><g id="Winking_Face_With_Tongue" data-name="Winking Face With Tongue"><g id="Flat"><path d="m256 512c-34.271 0-67.946-8.1-100.092-24.067-30.031-14.919-57.358-35.96-81.223-62.539-47.463-52.862-74.685-120.436-74.685-185.394 0-64.208 26.7-124.543 75.172-169.891 48.328-45.209 112.548-70.109 180.828-70.109s132.5 24.9 180.828 70.109c48.472 45.348 75.172 105.683 75.172 169.891 0 64.958-27.222 132.532-74.685 185.394-23.865 26.579-51.192 47.62-81.223 62.539-32.146 15.967-65.821 24.067-100.092 24.067z" fill="#ffcc80"/><path d="m437.959 71.193a335.627 335.627 0 0 1 2.041 36.807c0 183.359-148.641 332-332 332-6.683 0-13.314-.221-19.9-.61a266.906 266.906 0 0 0 67.807 48.543c32.147 15.967 65.822 24.067 100.093 24.067s67.946-8.1 100.092-24.067c30.031-14.919 57.358-35.96 81.223-62.539 47.463-52.862 74.685-120.436 74.685-185.394 0-63.7-26.289-123.583-74.041-168.807z" fill="#ffb74d"/><path d="m256 432a120.136 120.136 0 0 1 -120-120v-99.273a24.143 24.143 0 0 1 18.854-23.443c2.524-.553 5.183-1.163 7.994-1.807 21.126-4.844 50.059-11.477 93.152-11.477s72.026 6.633 93.152 11.477c2.811.644 5.47 1.254 7.994 1.807a24.143 24.143 0 0 1 18.854 23.443v99.273a120.136 120.136 0 0 1 -120 120z" fill="#e27484"/><path d="m340 208a197.082 197.082 0 0 1 35.937 3.3 24.141 24.141 0 0 0 -18.791-22.015c-2.524-.553-5.183-1.163-7.994-1.807-21.126-4.845-50.059-11.478-93.152-11.478s-72.026 6.633-93.152 11.477c-2.811.644-5.47 1.254-7.994 1.807a24.143 24.143 0 0 0 -18.854 23.443v99.273a119.282 119.282 0 0 0 12.021 52.32c18.346-89.22 97.326-156.32 191.979-156.32z" fill="#d8667c"/><path d="m120 168a8 8 0 0 1 -5.657-13.657c25.342-25.342 66.966-19.81 89.393-14.31-8.572-11.577-29.031-20.033-51.736-20.033a8 8 0 0 1 0-16c34.091 0 70.323 17.224 71.945 46.047a9 9 0 0 1 -11.907 9.036c-6.079-2.087-60.168-19.64-86.381 6.574a7.976 7.976 0 0 1 -5.657 2.343z" fill="#424242"/><circle cx="352" cy="144" fill="#616161" r="24"/><circle cx="344" cy="136" fill="#fff" r="8"/><path d="m320 240h-128a24.218 24.218 0 0 1 -24-24.375v-30.195l6.3-1.389a373.639 373.639 0 0 1 163.394 0l6.3 1.389v30.195a24.218 24.218 0 0 1 -23.994 24.375z" fill="#f5f5f5"/><path d="m256 512a80.091 80.091 0 0 1 -80-80v-84a44.049 44.049 0 0 1 44-44c18.368 0 29.612 6.231 36 11.813 6.388-5.582 17.632-11.813 36-11.813a44.049 44.049 0 0 1 44 44v84a80.091 80.091 0 0 1 -80 80z" fill="#ef5350"/><circle cx="256" cy="384" fill="#e53935" r="8"/><path d="m248.159 310.412a8.068 8.068 0 0 0 -.159 1.588v40a8 8 0 0 0 16 0v-40a8.068 8.068 0 0 0 -.159-1.588 42.786 42.786 0 0 0 -7.841 5.4 42.786 42.786 0 0 0 -7.841-5.4z" fill="#e53935"/><path d="m367.915 126.057c.051.641.085 1.288.085 1.943a23.983 23.983 0 0 1 -39.915 17.943 24 24 0 1 0 39.83-19.886z" fill="#424242"/><path d="m192 240h1.161a152.157 152.157 0 0 1 150.839-42.67v-11.06l-6.3-1.368a379.333 379.333 0 0 0 -163.394 0l-6.306 1.368v29.73a24.028 24.028 0 0 0 24 24z" fill="#e5e5e5"/><path d="m181.767 461.769a79.987 79.987 0 0 0 154.233-29.769v-84a43.732 43.732 0 0 0 -3.826-17.912 168.089 168.089 0 0 1 -150.407 131.681z" fill="#e53935"/><circle cx="208" cy="344" fill="#ff8f8f" r="16"/><circle cx="220" cy="380" fill="#ff8f8f" r="12"/><g fill="#ffe4c0"><circle cx="64" cy="240" r="24"/><circle cx="448" cy="240" r="24"/></g></g></g></svg>