<svg height="512" viewBox="0 0 512 512" width="512" xmlns="http://www.w3.org/2000/svg"><g id="Zipper-Mouth_Face" data-name="Zipper-Mouth Face"><g id="Flat"><path d="m256 512c-133.848 0-213.146-19.875-242.426-60.76-22.262-31.086-10.355-66.1-2.475-89.269 2.52-7.412 4.901-14.413 4.901-17.971 0-10.275-2.167-25.4-4.677-42.915-4.589-32.022-10.3-71.875-7.812-112.719 2.989-49.093 17.056-87.508 43.006-117.44 19.414-22.4 45.684-39.7 78.079-51.441 35.679-12.929 79.89-19.485 131.404-19.485 53.111 0 98.5 6.646 134.893 19.754 33.027 11.894 59.6 29.435 78.974 52.135 57.083 66.878 41.718 163.507 31.551 227.448-2.907 18.285-5.418 34.076-5.418 44.663 0 3.583 2.715 10.844 5.588 18.532 8.6 22.994 21.587 57.743.18 88.6-28.415 40.958-108.806 60.868-245.768 60.868z" fill="#ffcc80"/><path d="m501.588 362.532c-2.873-7.688-5.588-14.949-5.588-18.532 0-10.587 2.511-26.378 5.418-44.663 7.18-45.158 16.948-106.619 1.962-162.39-34.424 148.988-167.931 260.053-327.38 260.053a334.456 334.456 0 0 1 -162.6-41.918c-.7 2.188-1.5 4.517-2.3 6.889-7.88 23.169-19.787 58.183 2.475 89.269 29.279 40.885 108.577 60.76 242.425 60.76 136.962 0 217.353-19.91 245.768-60.868 21.407-30.857 8.417-65.606-.18-88.6z" fill="#ffb74d"/><g fill="#d8667c"><path d="m128 320a8 8 0 0 0 -16 0v24a8 8 0 0 0 16 0z"/><path d="m96 320a8 8 0 0 0 -16 0v24a8 8 0 0 0 16 0z"/><path d="m160 320a8 8 0 0 0 -16 0v24a8 8 0 0 0 16 0z"/><path d="m192 320a8 8 0 0 0 -16 0v24a8 8 0 0 0 16 0z"/><path d="m224 320a8 8 0 0 0 -16 0v24a8 8 0 0 0 16 0z"/><path d="m256 320a8 8 0 0 0 -16 0v24a8 8 0 0 0 16 0z"/><path d="m288 320a8 8 0 0 0 -16 0v24a8 8 0 0 0 16 0z"/><path d="m320 320a8 8 0 0 0 -16 0v24a8 8 0 0 0 16 0z"/><path d="m352 320a8 8 0 0 0 -16 0v24a8 8 0 0 0 16 0z"/><path d="m136 336a8 8 0 0 0 -8 8v24a8 8 0 0 0 16 0v-24a8 8 0 0 0 -8-8z"/><path d="m104 336a8 8 0 0 0 -8 8v24a8 8 0 0 0 16 0v-24a8 8 0 0 0 -8-8z"/><path d="m168 336a8 8 0 0 0 -8 8v24a8 8 0 0 0 16 0v-24a8 8 0 0 0 -8-8z"/><path d="m200 336a8 8 0 0 0 -8 8v24a8 8 0 0 0 16 0v-24a8 8 0 0 0 -8-8z"/><path d="m232 336a8 8 0 0 0 -8 8v24a8 8 0 0 0 16 0v-24a8 8 0 0 0 -8-8z"/><path d="m264 336a8 8 0 0 0 -8 8v24a8 8 0 0 0 16 0v-24a8 8 0 0 0 -8-8z"/><path d="m296 336a8 8 0 0 0 -8 8v24a8 8 0 0 0 16 0v-24a8 8 0 0 0 -8-8z"/><path d="m328 336a8 8 0 0 0 -8 8v24a8 8 0 0 0 16 0v-24a8 8 0 0 0 -8-8z"/><path d="m360 336a8 8 0 0 0 -8 8v24a8 8 0 0 0 16 0v-24a8 8 0 0 0 -8-8z"/><path d="m376 312a8 8 0 0 0 -8 8v24a8 8 0 0 0 16 0v-24a8 8 0 0 0 -8-8z"/></g><path d="m408 352h-336a8 8 0 0 1 0-16h336a8 8 0 0 1 0 16z" fill="#e27484"/><circle cx="336" cy="200" fill="#616161" r="24"/><circle cx="328" cy="192" fill="#fff" r="8"/><circle cx="176" cy="200" fill="#616161" r="24"/><circle cx="168" cy="192" fill="#fff" r="8"/><path d="m424 152a8 8 0 0 1 -8-8 48.054 48.054 0 0 0 -48-48 8 8 0 0 1 0-16 64.072 64.072 0 0 1 64 64 8 8 0 0 1 -8 8z" fill="#616161"/><path d="m88 152a8 8 0 0 1 -8-8 64.072 64.072 0 0 1 64-64 8 8 0 0 1 0 16 48.054 48.054 0 0 0 -48 48 8 8 0 0 1 -8 8z" fill="#616161"/><path d="m448 392h-48v-56a16 16 0 0 1 16-16h16a16 16 0 0 1 16 16z" fill="#e5e5e5"/><path d="m351.915 182.057c.051.641.085 1.288.085 1.943a23.983 23.983 0 0 1 -39.915 17.943 24 24 0 1 0 39.83-19.886z" fill="#424242"/><path d="m191.915 182.057c.051.641.085 1.288.085 1.943a23.983 23.983 0 0 1 -39.915 17.943 24 24 0 1 0 39.83-19.886z" fill="#424242"/><path d="m404 352.3c-1.347 0-2.678-.068-4-.168v39.868h48v-64a51.95 51.95 0 0 1 -44 24.3z" fill="#cfcfcf"/><path d="m424.485 456a36.42 36.42 0 0 1 -28.528-13.358 32.946 32.946 0 0 1 -6.743-27.69l7.027-32.932c2.724-12.76 14.6-22.02 28.244-22.02s25.521 9.261 28.244 22.02l7.028 32.931a32.948 32.948 0 0 1 -6.743 27.691 36.42 36.42 0 0 1 -28.529 13.358z" fill="#616161"/><path d="m454.1 388.43a71.954 71.954 0 0 1 -62.1 35.57c-1.151 0-2.294-.033-3.432-.087a33.208 33.208 0 0 0 7.389 18.729 37.143 37.143 0 0 0 57.057 0 32.948 32.948 0 0 0 6.743-27.691z" fill="#424242"/><circle cx="424" cy="384" fill="#424242" r="8"/><circle cx="64" cy="240" fill="#ffe4c0" r="24"/><circle cx="448" cy="240" fill="#ffe4c0" r="24"/></g></g></svg>